<svg xmlns="http://www.w3.org/2000/svg" version="1.1" xmlns:xlink="http://www.w3.org/1999/xlink" xmlns:svgjs="http://svgjs.dev/svgjs" width="1500" height="912" viewBox="0 0 1500 912"><g transform="matrix(1,0,0,1,-0.9074985248506664,-0.7307036934828375)"><svg viewBox="0 0 396 241" data-background-color="#ebe6c8" preserveAspectRatio="xMidYMid meet" height="912" width="1500" xmlns="http://www.w3.org/2000/svg" xmlns:xlink="http://www.w3.org/1999/xlink"><g id="tight-bounds" transform="matrix(1,0,0,1,0.24039988263760392,1.6989420336560528)"><svg viewBox="0 0 395.5199999999999 239.10549317704854" height="239.10549317704854" width="395.5199999999999"><g><svg viewBox="0 0 395.5199999999999 239.10549317704854" height="239.10549317704854" width="395.5199999999999"><g transform="matrix(1,0,0,1,0,123.07581537545789)"><svg viewBox="0 0 395.5199999999999 116.02967780159065" height="116.02967780159065" width="395.5199999999999"><g id="textblocktransform"><svg viewBox="0 0 395.5199999999999 116.02967780159065" height="116.02967780159065" width="395.5199999999999" id="textblock"><g><svg viewBox="0 0 395.5199999999999 116.02967780159065" height="116.02967780159065" width="395.5199999999999"><g transform="matrix(1,0,0,1,0,0)"><svg width="395.5199999999999" viewBox="-0.5126 -18.82674 192.87259 56.58106" height="116.02967780159065" data-palette-color="#f96420"><path d="M-0.513 14.967l10.72-30.427-3.083-1.722 1.11-1.645 10.224 3.602-0.957 2.717-3.424-1.207-10.6 30.088zM11.99 20.166c-0.9-0.273-1.59-0.719-2.071-1.339-0.481-0.62-0.624-1.251-0.428-1.896v0l3.617-11.756c0.173-0.686 0.522-1.169 1.045-1.449 0.524-0.28 1.108-0.322 1.752-0.127v0l3.968 1.527 2.894-9.029-0.496-0.464-5.105-1.913 0.731-2.412 6.364 1.93c0.9 0.273 1.473 0.701 1.722 1.284 0.242 0.582 0.187 1.45-0.163 2.605v0l-6.843 22.053 0.725 0.743-0.716 2.364zM15.632 18.219l0.368-0.317 2.974-10.154-2.709-0.821-0.326 0.214-3.174 9.78c-0.029 0.096-0.027 0.169 0.006 0.221 0.041 0.047 0.153 0.116 0.335 0.206v0zM23.018 23.305l0.789-3.132 5.469 1.378 1.617-10.555-4.182-2.353 2.992-11.879c0.114-0.453 0.394-0.839 0.839-1.16 0.439-0.323 0.855-0.434 1.25-0.335v0l6.691 1.686-0.603 2.395-5.81-0.639-1.427 8.324 4.652 2.574-3.373 13.392c-0.14 0.556-0.56 1.021-1.259 1.395-0.701 0.38-1.345 0.496-1.933 0.348v0zM38.74 26.898l-1.645-2.847 5.076-23.603-2.128-0.424 0.296-1.481 2.355-0.713 2.107-6.218 2.373 0.474-1.264 6.335 4.845 0.966-0.591 2.962-4.943-0.986-4.437 22.241 2.636 1.454 1.32-4.009 1.726 0.345-1.352 6.776zM55.282 30.744l4.277-36.551 4.509 0.528 0.387 19.235 0.298 0.035 4.685-19.649 4.857 0.569-4.276 36.54-3.307-0.387 4.975-32.965-0.199-0.023-7.172 23.526-1.5-0.176-1.042-21.899-0.199-0.023-3.691 31.544zM77.162 31.897c-0.938-0.057-1.713-0.33-2.325-0.822-0.612-0.491-0.897-1.073-0.856-1.744v0l0.79-12.275c0.009-0.707 0.236-1.258 0.68-1.652 0.445-0.394 1.003-0.571 1.675-0.53v0l4.214 0.564 0.72-9.453-0.591-0.337-5.409-0.676 0.152-2.516 6.638 0.4c0.938 0.057 1.596 0.34 1.972 0.851 0.37 0.51 0.519 1.367 0.446 2.571v0l-1.539 23.039 0.878 0.554-0.148 2.466zM80.252 29.158l0.285-0.394 0.536-10.567-2.824-0.17-0.268 0.284-0.818 10.25c-0.006 0.1 0.013 0.171 0.057 0.214 0.051 0.036 0.176 0.077 0.373 0.122v0zM88.894 32.391l0.307-28.328c0.644-0.393 1.427-0.661 2.349-0.805 0.928-0.137 2.299-0.195 4.112-0.175v0c0.907 0.01 1.644 0.244 2.212 0.704 0.562 0.459 0.839 1.039 0.831 1.739v0l-0.341 26.968-3.12-0.034 0.581-26.005c0.001-0.1-0.022-0.167-0.068-0.201-0.053-0.034-0.179-0.069-0.378-0.104v0l-2.98-0.032-0.585 26.305zM106.604 32.164c-0.939 0.041-1.738-0.151-2.398-0.576-0.659-0.425-1.003-0.974-1.033-1.647v0l-0.487-12.29c-0.064-0.705 0.104-1.276 0.506-1.714 0.401-0.438 0.938-0.672 1.611-0.701v0l4.249 0.125-0.264-9.478-0.623-0.273-5.45-0.112-0.11-2.517 6.644-0.291c0.939-0.041 1.622 0.173 2.05 0.641 0.421 0.469 0.658 1.306 0.71 2.512v0l0.859 23.074 0.931 0.46 0.108 2.467zM109.393 29.119l0.242-0.421-0.562-10.566-2.827 0.124-0.237 0.311 0.249 10.279c0.004 0.1 0.031 0.169 0.08 0.206 0.055 0.031 0.183 0.059 0.384 0.084v0zM120.363 37.754l-2.931-1.989-0.42-6.239c-0.066-0.663 0.11-1.187 0.527-1.57 0.418-0.377 0.942-0.63 1.572-0.76v0l-0.334-3.363-1.23-1.144-2.006-18.14c-0.102-0.693 0.107-1.277 0.63-1.751 0.529-0.475 1.178-0.75 1.947-0.827v0l4.458-0.444 0.889-2.782 2.06-0.205-0.128 3.761 2.011 18.191-1.77 2.608-4.398 0.538 0.329 3.314 5.911-0.589 1.892 2.144 0.667 4.687c0.137 1.038 0.053 1.908-0.253 2.607-0.298 0.706-0.832 1.098-1.601 1.175v0zM124.125 20.618l-1.553-16.106c-0.02-0.199-0.144-0.27-0.373-0.214v0l-3.175 0.718c-0.066 0.007-0.12 0.039-0.161 0.096-0.048 0.052-0.068 0.127-0.058 0.227v0l1.514 15.205c0.023 0.232 0.151 0.337 0.382 0.314v0zM126.448 34.265c0.265-0.026 0.383-0.189 0.353-0.488v0l-0.654-4.045c-0.01-0.1-0.063-0.195-0.159-0.286-0.09-0.092-0.201-0.131-0.333-0.117v0l-5.09 0.255c-0.272 0.027-0.396 0.157-0.373 0.389v0l0.38 4.826zM146.523 28.849l-3.978-25.553c-0.016-0.099-0.05-0.161-0.101-0.186-0.058-0.024-0.188-0.037-0.391-0.038v0l-3.287 0.538 4.376 24.515-3.336 0.546-4.051-25.693c-0.016-0.099-0.053-0.16-0.111-0.185-0.051-0.025-0.179-0.038-0.382-0.039v0l-2.924 0.276c-0.263 0.043-0.373 0.196-0.33 0.459v0l4.364 25.744-3.78 0.618-0.292-1.786 0.652-1.029-4.345-26.253 6.513-1.065c1.296-0.212 2.269 0.122 2.92 1.001v0c0.807-0.267 2.09-0.545 3.846-0.832v0c0.895-0.146 1.662-0.042 2.301 0.313 0.639 0.355 1.016 0.881 1.13 1.578v0l3.782 23.427 1.185 0.373 0.423 2.586zM157.374 25.359c-0.786 0.179-1.436 0.164-1.95-0.047-0.513-0.211-0.833-0.593-0.958-1.146v0l-5.632-24.675c-0.328-1.436 0.343-2.345 2.014-2.727v0l5.109-1.165c0.624-0.142 1.189-0.005 1.694 0.413 0.512 0.416 0.843 0.953 0.993 1.609v0l2.701 11.836-1.657 2.04-4.377 0.732 2.172 9.741c0.061 0.266 0.221 0.37 0.481 0.311v0l2.906-0.612 0.098-3.438 2.116-0.483 1.368 5.996zM154.538 9.564l2.759-0.63c0.162-0.037 0.269-0.096 0.319-0.175 0.05-0.08 0.049-0.233-0.002-0.461v0l-1.795-9.211c-0.067-0.292-0.246-0.405-0.539-0.339v0l-2.846 0.65c-0.201 0.046-0.318 0.107-0.349 0.182-0.037 0.077-0.037 0.197 0 0.359v0zM169.39 22.361l-7.729-27.255c0.507-0.559 1.182-1.038 2.025-1.437 0.851-0.394 2.15-0.838 3.894-1.333v0c0.872-0.247 1.646-0.231 2.321 0.049 0.669 0.282 1.099 0.759 1.29 1.432v0l7.31 25.961-3.001 0.851-6.808-25.105c-0.027-0.096-0.068-0.154-0.122-0.173-0.06-0.018-0.191-0.015-0.393 0.007v0l-2.867 0.813 6.89 25.394zM186.212 17.163l-2.854-1.632-7.495-22.95-2.052 0.704-0.491-1.428 1.677-1.802-1.309-6.433 2.289-0.786 2.096 6.111 4.673-1.604 0.98 2.857-4.767 1.636 7.361 21.452 3.01-0.071-0.877-4.129 1.664-0.571 2.243 6.536z" opacity="1" transform="matrix(1,0,0,1,0,0)" fill="#f96420" class="wordmark-text-0" data-fill-palette-color="primary" id="text-0"></path></svg></g></svg></g></svg></g></svg></g><g transform="matrix(1,0,0,1,157.87284949923142,0)"><svg viewBox="0 0 79.77430100153708 116.02967780159064" height="116.02967780159064" width="79.77430100153708"><g><svg xmlns="http://www.w3.org/2000/svg" xmlns:xlink="http://www.w3.org/1999/xlink" version="1.0" x="0" y="0" viewBox="22.499 10.000999591082287 55.00200000000001 79.99900040891771" enable-background="new 0 0 100 100" xml:space="preserve" height="116.02967780159064" width="79.77430100153708" class="icon-icon-0" data-fill-palette-color="accent" id="icon-0"><polygon fill="none" stroke="#044B05" stroke-linecap="round" stroke-linejoin="round" stroke-miterlimit="10" points="65.002,82.5   65.002,75 72.502,75 "></polygon><circle fill="none" stroke="#044B05" stroke-linecap="round" stroke-linejoin="round" stroke-miterlimit="10" cx="36.25" cy="37.501" r="3.8"></circle><polygon fill="none" stroke="#044B05" stroke-linecap="round" stroke-linejoin="round" stroke-miterlimit="10" points="32.5,33.751   36.249,37.501 42.498,31.25 36.249,37.501 "></polygon><polygon fill="none" stroke="#044B05" stroke-linecap="round" stroke-linejoin="round" stroke-miterlimit="10" points="32.5,48.751   36.249,52.501 42.498,46.25 36.249,52.501 "></polygon><polygon fill="none" stroke="#044B05" stroke-linecap="round" stroke-linejoin="round" stroke-miterlimit="10" points="32.5,63.75   36.249,67.5 42.498,61.25 36.249,67.5 "></polygon><path fill="none" stroke="#044B05" stroke-linecap="round" stroke-linejoin="round" stroke-miterlimit="10" d="M47.5 33.751H62.5z"></path><path fill="none" stroke="#044B05" stroke-linecap="round" stroke-linejoin="round" stroke-miterlimit="10" d="M47.5 37.501H67.5z"></path><path fill="none" stroke="#044B05" stroke-linecap="round" stroke-linejoin="round" stroke-miterlimit="10" d="M47.5 41.251H57.501z"></path><circle fill="none" stroke="#044B05" stroke-linecap="round" stroke-linejoin="round" stroke-miterlimit="10" cx="36.25" cy="52.501" r="3.8"></circle><path fill="none" stroke="#044B05" stroke-linecap="round" stroke-linejoin="round" stroke-miterlimit="10" d="M47.5 48.751H67.5z"></path><path fill="none" stroke="#044B05" stroke-linecap="round" stroke-linejoin="round" stroke-miterlimit="10" d="M47.5 52.501H57.501z"></path><path fill="none" stroke="#044B05" stroke-linecap="round" stroke-linejoin="round" stroke-miterlimit="10" d="M47.5 56.251H62.5z"></path><circle fill="none" stroke="#044B05" stroke-linecap="round" stroke-linejoin="round" stroke-miterlimit="10" cx="36.25" cy="67.5" r="3.8"></circle><path fill="none" stroke="#044B05" stroke-linecap="round" stroke-linejoin="round" stroke-miterlimit="10" d="M47.5 63.75H57.501z"></path><path fill="none" stroke="#044B05" stroke-linecap="round" stroke-linejoin="round" stroke-miterlimit="10" d="M47.5 67.5H67.5z"></path><path fill="none" stroke="#044B05" stroke-linecap="round" stroke-linejoin="round" stroke-miterlimit="10" d="M47.5 71.25H62.5z"></path><path fill="none" stroke="#044B05" stroke-linecap="round" stroke-linejoin="round" stroke-miterlimit="10" d="M51.876 14.999A1.876 1.876 0 1 1 48.125 14.999 1.876 1.876 0 0 1 51.876 15"></path><path fill="none" stroke="#044B05" stroke-linecap="round" stroke-linejoin="round" stroke-miterlimit="10" d="M60.003 16.25H54.825C54.929 15.849 55.001 15.434 55.001 15A5 5 0 0 0 50.002 10.001 5 5 0 0 0 45 14.999C45 15.433 45.076 15.848 45.179 16.249H40A2.5 2.5 0 0 0 37.499 18.749V26.251H62.501V18.751A2.5 2.5 0 0 0 60.003 16.25"></path><polygon fill="none" stroke="#044B05" stroke-linecap="round" stroke-linejoin="round" stroke-miterlimit="10" points="  62.501,22.499 62.501,26.251 37.499,26.251 37.499,22.499 27.498,22.499 27.498,82.5 65.002,82.5 72.502,75 72.502,22.499 "></polygon><path fill="none" stroke="#044B05" stroke-linecap="round" stroke-linejoin="round" stroke-miterlimit="10" d="M29.999 90A7.5 7.5 0 0 1 22.499 82.5V18.749H37.499V26.251H62.501V18.75H77.501V82.5 82.498C77.501 86.64 74.146 89.998 70.001 89.998z"></path></svg></g></svg></g><g></g></svg></g><defs></defs></svg><rect width="395.5199999999999" height="239.10549317704854" fill="none" stroke="none" visibility="hidden"></rect></g></svg></g></svg>